<svg width="321.1555969238281px" height="300.31997070312497px" xmlns="http://www.w3.org/2000/svg" viewBox="89.42220153808594 -75.15998535156248 321.1555969238281 300.31997070312497" style="background: rgba(0, 0, 0, 0);" preserveAspectRatio="xMidYMid"><defs><filter id="editing-jagged" x="-100%" y="-100%" width="300%" height="300%"><feTurbulence result="turb" baseFrequency="0.09" numOctaves="1" seed="1"></feTurbulence><feDisplacementMap in="SourceGraphic" in2="turb" scale="10"></feDisplacementMap></filter></defs><g filter="url(#editing-jagged)"><g transform="translate(137.07926988601685, 136.8600025177002)"><path d="M7.43-109.74L7.43-109.74L7.43-109.74Q12.57-120.36 26.82-120.36L26.82-120.36L26.82-120.36Q41.06-120.36 47.70-112.13L47.70-112.13L47.70-112.13Q54.34-103.90 54.34-84.96L54.34-84.96L54.34-21.77L97.35-116.64L118.41-116.64L63.37 0L21.95 0L16.64-84.96L16.64-84.96Q16.11-94.34 13.54-100.71L13.54-100.71L13.54-100.71Q10.97-107.08 7.43-109.74ZM202.49-36.64L202.49-36.64L202.49-36.64Q207.09-33.28 207.09-26.11L207.09-26.11L207.09-26.11Q207.09-18.94 203.99-13.89L203.99-13.89L203.99-13.89Q200.89-8.85 194.88-4.96L194.88-4.96L194.88-4.96Q181.96 3.36 159.39 3.36L159.39 3.36L159.39 3.36Q136.82 3.36 124.52-8.41L124.52-8.41L124.52-8.41Q112.22-20.18 112.22-41.06L112.22-41.06L112.22-41.06Q112.22-70.62 127.62-93.10L127.62-93.10L127.62-93.10Q139.30-109.74 160.19-116.82L160.19-116.82L160.19-116.82Q170.98-120.36 181.60-120.36L181.60-120.36L181.60-120.36Q192.22-120.36 198.77-118.94L198.77-118.94L198.77-118.94Q205.32-117.53 210.28-114.70L210.28-114.70L210.28-114.70Q221.07-108.50 221.07-98.59L221.07-98.59L221.07-98.59Q221.07-89.56 212.58-82.84L212.58-82.84L212.58-82.84Q204.79-76.82 198.42-76.82L198.42-76.82L198.42-76.82Q192.04-76.82 189.39-77.70L189.39-77.70L189.39-77.70Q190.10-84.07 190.10-88.23L190.10-88.23L190.10-88.23Q190.10-92.39 189.92-95.40L189.92-95.40L189.92-95.40Q189.74-98.41 188.86-101.24L188.86-101.24L188.86-101.24Q187.09-107.79 181.69-107.79L181.69-107.79L181.69-107.79Q176.29-107.79 170.89-102.75L170.89-102.75L170.89-102.75Q165.50-97.70 160.89-89.21L160.89-89.21L160.89-89.21Q150.45-69.91 150.45-47.08L150.45-47.08L150.45-47.08Q150.45-36.11 156.64-29.82L156.64-29.82L156.64-29.82Q162.84-23.54 176.12-23.54L176.12-23.54L176.12-23.54Q186.03-23.54 195.41-30.09L195.41-30.09L195.41-30.09Q199.48-32.92 202.49-36.64Z" fill="#444"></path></g></g><style>text {
  font-size: 64px;
  font-family: Arial Black;
  dominant-baseline: central;
  text-anchor: middle;
}</style></svg>