<svg xmlns="http://www.w3.org/2000/svg" height="2048" preserveAspectRatio="none" style="display: block;" version="1.1" viewBox="0 0 2048 2048" width="2048">
<path d="M 0 0 L 2048 0 L 2048 2048 L 0 2048 L 0 0 z" fill="rgb(2,2,2)" transform="translate(0,0)"></path>
<path d="M 386.126 751.799 L 453.879 751.807 C 477.677 751.813 503.518 750.043 526.209 756.578 C 557.524 765.793 584.196 786.507 600.878 814.564 C 611.615 832.241 616.439 852.889 622.145 872.644 L 637.565 925.408 L 694.051 1116.53 C 699.628 1134.96 707.723 1171.21 716.84 1186.07 C 743.021 1228.71 771.786 1243.29 816.898 1255.99 L 772.634 1087.43 C 758.843 1035.13 756.574 996.145 704.819 967.449 C 795.511 940.948 773.394 848.27 830.966 791.485 C 853.6 769.167 883.233 755.33 914.876 752.303 C 926.3 751.29 945.483 751.81 957.5 751.843 L 1024.84 751.789 C 999.263 817.797 970.878 885.367 944.29 951.134 L 804.088 1297.65 L 573.534 1297.6 C 566.408 1279.26 559.294 1256.66 552.878 1237.79 L 517.012 1132.61 L 386.126 751.799 z" fill="rgb(22,254,211)" transform="translate(0,0)"></path>
<path d="M 1123.78 976.462 L 1124.36 977.612 C 1107.26 1000.85 1101.22 1031.54 1102.1 1060.01 C 1105.42 1167.48 1222.29 1184.87 1298.57 1135.91 C 1316.72 1124.26 1326.35 1115.67 1340.8 1099.51 C 1357.32 1099.96 1375.62 1099.41 1392.29 1099.41 C 1427.7 1099.58 1463.12 1099.49 1498.53 1099.15 C 1465.67 1167.69 1425.52 1213.15 1361.56 1254.45 C 1310.45 1285.5 1251.73 1301.75 1191.93 1301.4 C 1090.68 1301.75 996.967 1251 959.666 1153.08 C 947.835 1122.02 945.911 1094.04 945.92 1061.34 C 956.58 1049.68 967.464 1037.72 979.781 1027.85 C 1021.47 994.438 1071.34 979.951 1123.78 976.462 z" fill="rgb(227,227,224)" transform="translate(0,0)"></path>
<path d="M 1281.7 745.439 C 1344.72 741.949 1416.06 765.766 1462.2 808.747 C 1505.44 848.258 1530.73 903.671 1532.25 962.225 L 1370.48 962.581 C 1362.84 919.392 1337.8 896.547 1296.78 884.595 C 1270.81 879.518 1247.13 882.388 1221.78 889.82 C 1215.16 891.374 1205.59 897.694 1198.93 897.773 C 1129.83 898.599 1067.36 896.185 1000.89 918.828 C 1017.09 896.468 1033.53 872.825 1051.9 852.309 C 1112.83 784.257 1191.57 750.385 1281.7 745.439 z" fill="rgb(227,227,224)" transform="translate(0,0)"></path>
<path d="M 1574.3 1141.28 C 1617.18 1136.08 1656.17 1166.57 1661.46 1209.44 C 1666.75 1252.3 1636.34 1291.36 1593.48 1296.73 C 1550.51 1302.13 1511.31 1271.61 1506.01 1228.62 C 1500.71 1185.63 1531.3 1146.5 1574.3 1141.28 z" fill="rgb(227,227,224)" transform="translate(0,0)"></path>
<metadata><recraft-signature>{"signed_by": "recraft", "signature_b64": "1eIzALBqO72XCo8YkBbTmc1UtSZ93hkt8v5cHMhTfADVZLkp1CKUu9LvZLMREYtOSk/gsjRn1GGvZK2U+PXNCA==", "signing_algo": "Ed25519", "generation_timestamp": 1776139163, "identifier": "f6222767-3ca7-4b05-9740-7f3e7564390e"}</recraft-signature></metadata></svg>